Crispy Extended Thin-MaxGrade.ufo
<glyph name="four" format="2">
  <advance width="2383"/>
  <unicode hex="0034"/>
  <outline>
    <contour>
      <point x="1954" y="0" type="line"/>
      <point x="1961" y="0" type="line"/>
      <point x="1961" y="797" type="line"/>
      <point x="2193" y="797" type="line"/>
      <point x="2193" y="803" type="line"/>
      <point x="1961" y="803" type="line"/>
      <point x="1961" y="1600" type="line"/>
      <point x="1954" y="1600" type="line"/>
      <point x="1954" y="803" type="line"/>
      <point x="122" y="803" type="line"/>
      <point x="122" y="960" type="line"/>
      <point x="276" y="1600" type="line"/>
      <point x="270" y="1601" type="line"/>
      <point x="115" y="959" type="line"/>
      <point x="115" y="797" type="line"/>
      <point x="1954" y="797" type="line"/>
    </contour>
  </outline>
</glyph>
<glyph name="D" format="2">
  <advance width="2698"/>
  <unicode hex="0044"/>
  <outline>
    <contour>
      <point x="399" y="0" type="line"/>
      <point x="2128" y="0" type="line"/>
      <point x="2417" y="343" type="line"/>
      <point x="2417" y="1600" type="line"/>
      <point x="399" y="1600" type="line"/>
    </contour>
    <contour>
      <point x="406" y="6" type="line"/>
      <point x="406" y="1594" type="line"/>
      <point x="2410" y="1594" type="line"/>
      <point x="2410" y="344" type="line"/>
      <point x="2123" y="6" type="line"/>
    </contour>
  </outline>
</glyph>
<glyph name="E" format="2">
  <advance width="2586"/>
  <unicode hex="0045"/>
  <outline>
    <contour>
      <point x="399" y="0" type="line"/>
      <point x="2330" y="0" type="line"/>
      <point x="2330" y="526" type="line"/>
      <point x="2323" y="526" type="line"/>
      <point x="2323" y="6" type="line"/>
      <point x="406" y="6" type="line"/>
      <point x="406" y="797" type="line"/>
      <point x="1467" y="797" type="line"/>
      <point x="1467" y="803" type="line"/>
      <point x="406" y="803" type="line"/>
      <point x="406" y="1594" type="line"/>
      <point x="2322" y="1594" type="line"/>
      <point x="2322" y="1076" type="line"/>
      <point x="2329" y="1076" type="line"/>
      <point x="2329" y="1600" type="line"/>
      <point x="399" y="1600" type="line"/>
    </contour>
  </outline>
</glyph>
<glyph name="Z" format="2">
  <advance width="2671"/>
  <unicode hex="005A"/>
  <outline>
    <contour>
      <point x="282" y="0" type="line"/>
      <point x="2389" y="0" type="line"/>
      <point x="2389" y="515" type="line"/>
      <point x="2383" y="515" type="line"/>
      <point x="2383" y="5" type="line"/>
      <point x="288" y="5" type="line"/>
      <point x="288" y="382" type="line"/>
      <point x="2384" y="1374" type="line"/>
      <point x="2384" y="1600" type="line"/>
      <point x="285" y="1600" type="line"/>
      <point x="285" y="1113" type="line"/>
      <point x="291" y="1113" type="line"/>
      <point x="291" y="1595" type="line"/>
      <point x="2378" y="1595" type="line"/>
      <point x="2378" y="1376" type="line"/>
      <point x="282" y="385" type="line"/>
    </contour>
  </outline>
</glyph>
<glyph name="bracketleft" format="2">
  <advance width="1261"/>
  <unicode hex="005B"/>
  <outline>
    <contour>
      <point x="412" y="1727" type="line"/>
      <point x="1118" y="1727" type="line"/>
      <point x="1118" y="1733" type="line"/>
      <point x="405" y="1733" type="line"/>
      <point x="405" y="-133" type="line"/>
      <point x="1113" y="-133" type="line"/>
      <point x="1113" y="-127" type="line"/>
      <point x="412" y="-127" type="line"/>
    </contour>
  </outline>
</glyph>
<glyph name="b" format="2">
  <advance width="1997"/>
  <unicode hex="0062"/>
  <outline>
    <contour>
      <point x="237" y="0" type="line"/>
      <point x="237" y="1700" type="line"/>
      <point x="243" y="1700" type="line"/>
      <point x="243" y="5" type="line"/>
      <point x="1537" y="5" type="line"/>
      <point x="1796" y="314" type="line"/>
      <point x="1796" y="1195" type="line"/>
      <point x="242" y="1195" type="line"/>
      <point x="242" y="1197" type="line"/>
      <point x="503" y="1200" type="line"/>
      <point x="1803" y="1200" type="line"/>
      <point x="1803" y="310" type="line"/>
      <point x="1543" y="0" type="line"/>
    </contour>
  </outline>
</glyph>
<glyph name="c" format="2">
  <advance width="1727"/>
  <unicode hex="0063"/>
  <outline>
    <contour>
      <point x="195" y="0" type="line"/>
      <point x="195" y="890" type="line"/>
      <point x="449" y="1200" type="line"/>
      <point x="1553" y="1200" type="line"/>
      <point x="1553" y="1195" type="line"/>
      <point x="453" y="1195" type="line"/>
      <point x="201" y="886" type="line"/>
      <point x="201" y="5" type="line"/>
      <point x="1552" y="5" type="line"/>
      <point x="1553" y="0" type="line"/>
    </contour>
  </outline>
</glyph>
<glyph name="f" format="2">
  <advance width="1508"/>
  <unicode hex="0066"/>
  <outline>
    <contour>
      <point x="373" y="0" type="line"/>
      <point x="373" y="1321" type="line"/>
      <point x="592" y="1655" type="line"/>
      <point x="1588" y="1655" type="line"/>
      <point x="1588" y="1650" type="line"/>
      <point x="598" y="1650" type="line"/>
      <point x="379" y="1319" type="line"/>
      <point x="379" y="0" type="line"/>
    </contour>
    <contour>
      <point x="34" y="803" type="line"/>
      <point x="34" y="808" type="line"/>
      <point x="275" y="808" type="line"/>
      <point x="580" y="805" type="line"/>
      <point x="896" y="808" type="line"/>
      <point x="1457" y="808" type="line"/>
      <point x="1457" y="803" type="line"/>
    </contour>
  </outline>
</glyph>
<glyph name="g" format="2">
  <advance width="1899"/>
  <unicode hex="0067"/>
  <outline>
    <contour>
      <point x="390" y="-293" type="line"/>
      <point x="1526" y="-293" type="line"/>
      <point x="1710" y="-32" type="line"/>
      <point x="1710" y="1200" type="line"/>
      <point x="406" y="1200" type="line"/>
      <point x="152" y="888" type="line"/>
      <point x="152" y="61" type="line"/>
      <point x="1443" y="61" type="line"/>
      <point x="1703" y="64" type="line"/>
      <point x="1703" y="-28" type="line"/>
      <point x="1520" y="-288" type="line"/>
      <point x="390" y="-288" type="line"/>
    </contour>
    <contour>
      <point x="158" y="66" type="line"/>
      <point x="158" y="884" type="line"/>
      <point x="412" y="1195" type="line"/>
      <point x="1703" y="1195" type="line"/>
      <point x="1703" y="66" type="line"/>
    </contour>
  </outline>
</glyph>
<glyph name="r" format="2">
  <advance width="1328"/>
  <unicode hex="0072"/>
  <outline>
    <contour>
      <point x="1318" y="1195" type="line"/>
      <point x="449" y="1195" type="line"/>
      <point x="196" y="884" type="line"/>
      <point x="196" y="0" type="line"/>
      <point x="190" y="0" type="line"/>
      <point x="190" y="887" type="line"/>
      <point x="444" y="1200" type="line"/>
      <point x="1318" y="1200" type="line"/>
    </contour>
  </outline>
</glyph>
<glyph name="v" format="2">
  <advance width="1713"/>
  <unicode hex="0076"/>
  <outline>
    <contour>
      <point x="233" y="0" type="line"/>
      <point x="1259" y="0" type="line"/>
      <point x="1679" y="1200" type="line"/>
      <point x="1672" y="1200" type="line"/>
      <point x="1254" y="5" type="line"/>
      <point x="239" y="5" type="line"/>
      <point x="239" y="1200" type="line"/>
      <point x="233" y="1200" type="line"/>
    </contour>
  </outline>
</glyph>
<glyph name="z" format="2">
  <advance width="1580"/>
  <unicode hex="007A"/>
  <outline>
    <contour>
      <point x="135" y="0" type="line"/>
      <point x="1466" y="0" type="line"/>
      <point x="1466" y="5" type="line"/>
      <point x="142" y="5" type="line"/>
      <point x="142" y="270" type="line"/>
      <point x="1450" y="976" type="line"/>
      <point x="1450" y="1201" type="line"/>
      <point x="141" y="1201" type="line"/>
      <point x="141" y="1196" type="line"/>
      <point x="1444" y="1196" type="line"/>
      <point x="1444" y="977" type="line"/>
      <point x="135" y="271" type="line"/>
    </contour>
  </outline>
</glyph>
<glyph name="asciitilde" format="2">
  <unicode hex="007E"/>
  <outline>
    <contour>
      <point x="-264" y="1887" type="line"/>
      <point x="364" y="1743" type="line"/>
      <point x="407" y="1743" type="line"/>
      <point x="631" y="1881" type="line"/>
      <point x="629" y="1884" type="line"/>
      <point x="406" y="1747" type="line"/>
      <point x="365" y="1747" type="line"/>
      <point x="-263" y="1892" type="line"/>
      <point x="-307" y="1892" type="line"/>
      <point x="-522" y="1754" type="line"/>
      <point x="-520" y="1751" type="line"/>
      <point x="-306" y="1887" type="line"/>
    </contour>
  </outline>
</glyph>
<glyph name="figuredash" format="2">
  <advance width="2421"/>
  <unicode hex="2012"/>
  <outline>
    <contour>
      <point x="33" y="797" type="line"/>
      <point x="2388" y="797" type="line"/>
      <point x="2388" y="803" type="line"/>
      <point x="33" y="803" type="line"/>
    </contour>
  </outline>
</glyph>
<glyph name="endash" format="2">
  <advance width="2589"/>
  <unicode hex="2013"/>
  <outline>
    <contour>
      <point x="224" y="797" type="line"/>
      <point x="2365" y="797" type="line"/>
      <point x="2365" y="803" type="line"/>
      <point x="224" y="803" type="line"/>
    </contour>
  </outline>
</glyph>
<glyph name="C.wide" format="2">
  <advance width="2519"/>
  <outline>
    <contour>
      <point x="284" y="0" type="line"/>
      <point x="2276" y="0" type="line"/>
      <point x="2276" y="6" type="line"/>
      <point x="291" y="6" type="line"/>
      <point x="291" y="1188" type="line"/>
      <point x="582" y="1594" type="line"/>
      <point x="2275" y="1594" type="line"/>
      <point x="2275" y="1600" type="line"/>
      <point x="577" y="1600" type="line"/>
      <point x="284" y="1190" type="line"/>
    </contour>
  </outline>
</glyph>
<glyph name="four.smol" format="2">
  <advance width="1670"/>
  <outline>
    <contour>
      <point x="1370" y="0" type="line"/>
      <point x="1375" y="0" type="line"/>
      <point x="1375" y="530" type="line"/>
      <point x="1536" y="530" type="line"/>
      <point x="1536" y="535" type="line"/>
      <point x="1375" y="535" type="line"/>
      <point x="1375" y="1066" type="line"/>
      <point x="1370" y="1066" type="line"/>
      <point x="1370" y="535" type="line"/>
      <point x="86" y="535" type="line"/>
      <point x="86" y="642" type="line"/>
      <point x="193" y="1066" type="line"/>
      <point x="188" y="1067" type="line"/>
      <point x="80" y="642" type="line"/>
      <point x="80" y="530" type="line"/>
      <point x="1370" y="530" type="line"/>
    </contour>
  </outline>
</glyph>
<glyph name="one.smol" format="2">
  <advance width="1560"/>
  <outline>
    <contour>
      <point x="131" y="0" type="line"/>
      <point x="1520" y="0" type="line"/>
      <point x="1520" y="4" type="line"/>
      <point x="828" y="4" type="line"/>
      <point x="828" y="1066" type="line"/>
      <point x="142" y="1066" type="line"/>
      <point x="142" y="1062" type="line"/>
      <point x="823" y="1062" type="line"/>
      <point x="823" y="4" type="line"/>
      <point x="131" y="4" type="line"/>
    </contour>
  </outline>
</glyph>
<glyph name="three.smol" format="2">
  <advance width="1878"/>
  <outline>
    <contour>
      <point x="227" y="0" type="line"/>
      <point x="1673" y="0" type="line"/>
      <point x="1674" y="542" type="line"/>
      <point x="1410" y="542" type="line"/>
      <point x="1544" y="723" type="line"/>
      <point x="1544" y="1066" type="line"/>
      <point x="300" y="1066" type="line"/>
      <point x="300" y="709" type="line"/>
      <point x="305" y="709" type="line"/>
      <point x="305" y="1062" type="line"/>
      <point x="1539" y="1062" type="line"/>
      <point x="1539" y="724" type="line"/>
      <point x="1404" y="542" type="line"/>
      <point x="598" y="542" type="line"/>
      <point x="598" y="538" type="line"/>
      <point x="1668" y="538" type="line"/>
      <point x="1668" y="4" type="line"/>
      <point x="232" y="4" type="line"/>
      <point x="232" y="365" type="line"/>
      <point x="227" y="365" type="line"/>
    </contour>
  </outline>
</glyph>
<glyph name="two.smol" format="2">
  <advance width="1793"/>
  <outline>
    <contour>
      <point x="212" y="0" type="line"/>
      <point x="1601" y="0" type="line"/>
      <point x="1601" y="3" type="line"/>
      <point x="217" y="3" type="line"/>
      <point x="217" y="532" type="line"/>
      <point x="1582" y="532" type="line"/>
      <point x="1582" y="1066" type="line"/>
      <point x="254" y="1066" type="line"/>
      <point x="254" y="743" type="line"/>
      <point x="258" y="743" type="line"/>
      <point x="258" y="1063" type="line"/>
      <point x="1578" y="1063" type="line"/>
      <point x="1578" y="535" type="line"/>
      <point x="212" y="535" type="line"/>
    </contour>
  </outline>
</glyph>
